<svg width="15" height="15" viewBox="0 0 15 15" fill="none" xmlns="http://www.w3.org/2000/svg"><path d="M7.065 12.034a.499.499 0 0 1-.358-.132.56.56 0 0 1-.208-.548l.812-4.08-.434.245a.563.563 0 0 1-.775-.227.574.574 0 0 1 .208-.774l1.53-.85a.576.576 0 0 1 .623.037.565.565 0 0 1 .227.567l-.831 4.232.68-.303a.567.567 0 0 1 .756.303.567.567 0 0 1-.303.755l-1.68.737c-.095.038-.17.038-.247.038zm1.606-7.783a.82.82 0 0 0 .246-.567.864.864 0 0 0-.246-.586.829.829 0 0 0-.585-.245.819.819 0 0 0-.567.245.829.829 0 0 0-.246.586c0 .208.095.415.246.567a.82.82 0 0 0 .567.245.829.829 0 0 0 .585-.245zM15 7.5C15 3.363 11.637 0 7.5 0A7.506 7.506 0 0 0 0 7.5C0 11.637 3.363 15 7.5 15c4.137 0 7.5-3.363 7.5-7.5zm-1.303 0A6.2 6.2 0 0 1 7.5 13.697 6.2 6.2 0 0 1 1.304 7.5 6.2 6.2 0 0 1 7.5 1.304 6.2 6.2 0 0 1 13.697 7.5z" fill="#005CFF"/></svg>